<svg width="25" height="25" viewBox="0 0 25 25" fill="none" xmlns="http://www.w3.org/2000/svg">
<path d="M20.0194 5.38128L19.2835 4.64533C19.0755 4.43734 18.6915 4.46935 18.4515 4.7573L15.8913 7.30126C14.7392 6.80532 13.4754 6.56532 12.1473 6.56532C8.19519 6.58126 4.77141 8.88523 3.12329 12.1974C3.02726 12.4054 3.02726 12.6614 3.12329 12.8373C3.89122 14.4054 5.04329 15.7014 6.4833 16.6773L4.3873 18.8053C4.1473 19.0453 4.11529 19.4293 4.27534 19.6373L5.01128 20.3732C5.21928 20.5812 5.60326 20.5492 5.84326 20.2613L19.8912 6.21339C20.1952 5.97352 20.2272 5.58956 20.0192 5.38155L20.0194 5.38128ZM12.9953 10.2132C12.7233 10.1491 12.4353 10.0692 12.1633 10.0692C10.8033 10.0692 9.71538 11.1572 9.71538 12.5171C9.71538 12.7891 9.7794 13.0771 9.85935 13.3491L8.78724 14.4051C8.46728 13.8452 8.2913 13.2211 8.2913 12.5172C8.2913 10.3892 10.0033 8.67715 12.1313 8.67715C12.8354 8.67715 13.4593 8.85314 14.0193 9.1731L12.9953 10.2132Z" fill="#9794AA"/>
<path d="M21.1714 12.1974C20.6115 11.0773 19.8754 10.0694 18.9635 9.25336L15.9875 12.1974V12.5173C15.9875 14.6453 14.2754 16.3573 12.1475 16.3573H11.8275L9.93951 18.2453C10.6436 18.3893 11.3795 18.4853 12.0995 18.4853C16.0516 18.4853 19.4754 16.1813 21.1235 12.8532C21.2675 12.6291 21.2675 12.4052 21.1715 12.1972L21.1714 12.1974Z" fill="#9794AA"/>
</svg>
